<svg xmlns="http://www.w3.org/2000/svg" viewBox="0 0 24 24" width="36" height="36" fill="#ff8a00">
  <path d="M24 4.557a9.83 9.83 0 0 1-2.828.775 4.932 4.932 0 0 0 2.165-2.724c-.951.555-2.005.959-3.127 1.184A4.916 4.916 0 0 0 16.616 3c-2.724 0-4.932 2.208-4.932 4.932 0 .387.044.763.127 1.124C7.728 8.94 4.1 6.97 1.671 4.149a4.932 4.932 0 0 0-.666 2.475c0 1.708.869 3.216 2.188 4.099a4.903 4.903 0 0 1-2.23-.616v.062c0 2.385 1.693 4.374 3.946 4.827a4.935 4.935 0 0 1-2.224.085c.626 1.955 2.444 3.376 4.6 3.416A9.867 9.867 0 0 1 0 19.54 13.94 13.94 0 0 0 7.548 21c9.142 0 14.307-7.721 13.995-14.646A9.935 9.935 0 0 0 24 4.557z"/>
</svg>
